# xmcd
#
# Track frame offsets:
#	150
#	16095
#	31852
#	44760
#	61790
#	75045
#	87500
#	99452
#	120145
#	133015
#	146065
#	164532
#	179225
#	194112
#
# Disc length: 2850 seconds
#
# Revision: 2
# Processed by: cddbd v1.4PL0 Copyright (c) Steve Scherf et al.
# Submitted via: audiograbber 1.80.04
#
DISCID=ba0b200e
DTITLE=Various Artist - Hot Country Nights
DYEAR=1900
DGENRE=Country
TTITLE0=Billy Dean - Only Here For A Little While
TTITLE1=Tanya Tucker - Down To My Last Teardrop
TTITLE2=mark Chestnutt - Blame It On Texas
TTITLE3=Shenandoah - I Got You
TTITLE4=Sammy Kershaw - Cadillac Style
TTITLE5=Lee Greenwood and Suzy Bogguss - Hopelessly Yours
TTITLE6=Mary Chapin Carpenter - Right Now
TTITLE7=reba McEntire - Fallin' Out Of Love
TTITLE8=Conway Twitty - I Couldn't See You Leavin'
TTITLE9=Patty Loveless - Blue Memories
TTITLE10=Trisha Yearwood - She's In Love With The Boy
TTITLE11=Davis Daniel - Fighting Fire With Fire
TTITLE12=McBride and The Ride - Can I Count On You
TTITLE13=Kathy Mattea - Asking Us To Dance
EXTD=
EXTT0=
EXTT1=
EXTT2=
EXTT3=
EXTT4=
EXTT5=
EXTT6=
EXTT7=
EXTT8=
EXTT9=
EXTT10=
EXTT11=
EXTT12=
EXTT13=
PLAYORDER=
